<mxfile host="app.diagrams.net" modified="2024-05-31T16:05:51.141Z" agent="Mozilla/5.0 (Windows NT 10.0; Win64; x64) AppleWebKit/537.36 (KHTML, like Gecko) Chrome/126.0.0.0 Safari/537.36" etag="ZerlZoTsvlUCcUyTHSXR" version="24.4.8" type="github">
  <diagram name="Page-1" id="e3a06f82-3646-2815-327d-82caf3d4e204">
    <mxGraphModel dx="1138" dy="1813" grid="1" gridSize="10" guides="1" tooltips="1" connect="1" arrows="1" fold="1" page="1" pageScale="1.5" pageWidth="1169" pageHeight="826" background="none" math="0" shadow="0">
      <root>
        <mxCell id="0" style=";html=1;" />
        <mxCell id="1" style=";html=1;" parent="0" />
        <mxCell id="KB8DaP4lJ72ktsZPJHTP-2" value="" style="verticalLabelPosition=bottom;sketch=0;aspect=fixed;html=1;verticalAlign=top;strokeColor=none;align=center;outlineConnect=0;shape=mxgraph.citrix.cloud;" vertex="1" parent="1">
          <mxGeometry x="380" y="522" width="95" height="62" as="geometry" />
        </mxCell>
        <mxCell id="KB8DaP4lJ72ktsZPJHTP-4" style="edgeStyle=none;rounded=0;orthogonalLoop=1;jettySize=auto;html=1;exitX=1;exitY=0.5;exitDx=0;exitDy=0;" edge="1" parent="1" source="KB8DaP4lJ72ktsZPJHTP-3" target="KB8DaP4lJ72ktsZPJHTP-2">
          <mxGeometry relative="1" as="geometry">
            <Array as="points" />
          </mxGeometry>
        </mxCell>
        <mxCell id="KB8DaP4lJ72ktsZPJHTP-3" value="" style="rounded=1;whiteSpace=wrap;html=1;" vertex="1" parent="1">
          <mxGeometry x="130" y="522" width="140" height="60" as="geometry" />
        </mxCell>
        <mxCell id="KB8DaP4lJ72ktsZPJHTP-5" value="Text" style="text;html=1;align=center;verticalAlign=middle;whiteSpace=wrap;rounded=0;" vertex="1" parent="1">
          <mxGeometry x="160" y="537" width="60" height="30" as="geometry" />
        </mxCell>
        <mxCell id="KB8DaP4lJ72ktsZPJHTP-9" style="rounded=0;orthogonalLoop=1;jettySize=auto;html=1;" edge="1" parent="1" source="KB8DaP4lJ72ktsZPJHTP-6" target="KB8DaP4lJ72ktsZPJHTP-7">
          <mxGeometry relative="1" as="geometry" />
        </mxCell>
        <mxCell id="KB8DaP4lJ72ktsZPJHTP-6" value="Text" style="text;html=1;align=center;verticalAlign=middle;whiteSpace=wrap;rounded=0;" vertex="1" parent="1">
          <mxGeometry x="400" y="539" width="60" height="30" as="geometry" />
        </mxCell>
        <mxCell id="KB8DaP4lJ72ktsZPJHTP-10" style="edgeStyle=none;rounded=0;orthogonalLoop=1;jettySize=auto;html=1;" edge="1" parent="1" source="KB8DaP4lJ72ktsZPJHTP-7" target="KB8DaP4lJ72ktsZPJHTP-8">
          <mxGeometry relative="1" as="geometry" />
        </mxCell>
        <mxCell id="KB8DaP4lJ72ktsZPJHTP-7" value="" style="verticalLabelPosition=bottom;sketch=0;aspect=fixed;html=1;verticalAlign=top;strokeColor=none;align=center;outlineConnect=0;shape=mxgraph.citrix.firewall;" vertex="1" parent="1">
          <mxGeometry x="530" y="510.75" width="75" height="93" as="geometry" />
        </mxCell>
        <mxCell id="KB8DaP4lJ72ktsZPJHTP-8" value="" style="verticalLabelPosition=bottom;sketch=0;aspect=fixed;html=1;verticalAlign=top;strokeColor=none;align=center;outlineConnect=0;shape=mxgraph.citrix.router;" vertex="1" parent="1">
          <mxGeometry x="700" y="539" width="55" height="36.5" as="geometry" />
        </mxCell>
        <mxCell id="KB8DaP4lJ72ktsZPJHTP-14" style="rounded=0;orthogonalLoop=1;jettySize=auto;html=1;exitX=0.5;exitY=0;exitDx=0;exitDy=0;exitPerimeter=0;elbow=vertical;edgeStyle=orthogonalEdgeStyle;curved=1;" edge="1" parent="1" source="KB8DaP4lJ72ktsZPJHTP-11">
          <mxGeometry relative="1" as="geometry">
            <mxPoint x="590" y="290" as="targetPoint" />
          </mxGeometry>
        </mxCell>
        <mxCell id="KB8DaP4lJ72ktsZPJHTP-15" style="edgeStyle=orthogonalEdgeStyle;curved=1;rounded=0;orthogonalLoop=1;jettySize=auto;html=1;exitX=1;exitY=0;exitDx=0;exitDy=0;exitPerimeter=0;elbow=vertical;" edge="1" parent="1" source="KB8DaP4lJ72ktsZPJHTP-11">
          <mxGeometry relative="1" as="geometry">
            <mxPoint x="920" y="360" as="targetPoint" />
          </mxGeometry>
        </mxCell>
        <mxCell id="KB8DaP4lJ72ktsZPJHTP-17" style="edgeStyle=orthogonalEdgeStyle;curved=1;rounded=0;orthogonalLoop=1;jettySize=auto;html=1;exitX=1;exitY=0.5;exitDx=0;exitDy=0;exitPerimeter=0;elbow=vertical;" edge="1" parent="1" source="KB8DaP4lJ72ktsZPJHTP-11">
          <mxGeometry relative="1" as="geometry">
            <mxPoint x="1080" y="340" as="targetPoint" />
          </mxGeometry>
        </mxCell>
        <mxCell id="KB8DaP4lJ72ktsZPJHTP-18" style="edgeStyle=orthogonalEdgeStyle;curved=1;rounded=0;orthogonalLoop=1;jettySize=auto;html=1;exitX=0.95;exitY=0.94;exitDx=0;exitDy=0;exitPerimeter=0;elbow=vertical;" edge="1" parent="1" source="KB8DaP4lJ72ktsZPJHTP-11">
          <mxGeometry relative="1" as="geometry">
            <mxPoint x="1060" y="710" as="targetPoint" />
          </mxGeometry>
        </mxCell>
        <mxCell id="KB8DaP4lJ72ktsZPJHTP-19" style="edgeStyle=orthogonalEdgeStyle;curved=1;rounded=0;orthogonalLoop=1;jettySize=auto;html=1;exitX=0.5;exitY=1;exitDx=0;exitDy=0;exitPerimeter=0;elbow=vertical;" edge="1" parent="1" source="KB8DaP4lJ72ktsZPJHTP-11">
          <mxGeometry relative="1" as="geometry">
            <mxPoint x="960" y="750" as="targetPoint" />
          </mxGeometry>
        </mxCell>
        <mxCell id="KB8DaP4lJ72ktsZPJHTP-20" style="edgeStyle=orthogonalEdgeStyle;curved=1;rounded=0;orthogonalLoop=1;jettySize=auto;html=1;exitX=0;exitY=1;exitDx=0;exitDy=0;exitPerimeter=0;elbow=vertical;" edge="1" parent="1" source="KB8DaP4lJ72ktsZPJHTP-11">
          <mxGeometry relative="1" as="geometry">
            <mxPoint x="710" y="750" as="targetPoint" />
          </mxGeometry>
        </mxCell>
        <mxCell id="KB8DaP4lJ72ktsZPJHTP-11" value="" style="shape=mxgraph.cisco.switches.layer_3_switch;sketch=0;html=1;pointerEvents=1;dashed=0;fillColor=#036897;strokeColor=#ffffff;strokeWidth=2;verticalLabelPosition=bottom;verticalAlign=top;align=center;outlineConnect=0;" vertex="1" parent="1">
          <mxGeometry x="820" y="525.25" width="64" height="64" as="geometry" />
        </mxCell>
        <mxCell id="KB8DaP4lJ72ktsZPJHTP-12" style="edgeStyle=none;rounded=0;orthogonalLoop=1;jettySize=auto;html=1;entryX=0;entryY=0.5;entryDx=0;entryDy=0;entryPerimeter=0;" edge="1" parent="1" source="KB8DaP4lJ72ktsZPJHTP-8" target="KB8DaP4lJ72ktsZPJHTP-11">
          <mxGeometry relative="1" as="geometry" />
        </mxCell>
        <mxCell id="KB8DaP4lJ72ktsZPJHTP-21" value="" style="rounded=0;whiteSpace=wrap;html=1;movable=0;resizable=0;rotatable=0;deletable=0;editable=0;locked=1;connectable=0;" vertex="1" parent="1">
          <mxGeometry x="982" y="-5" width="200" height="350" as="geometry" />
        </mxCell>
        <mxCell id="KB8DaP4lJ72ktsZPJHTP-22" value="&lt;font style=&quot;font-size: 25px;&quot;&gt;IOT&lt;/font&gt;" style="text;html=1;align=center;verticalAlign=middle;whiteSpace=wrap;rounded=0;" vertex="1" parent="1">
          <mxGeometry x="1062" y="-35" width="60" height="30" as="geometry" />
        </mxCell>
        <mxCell id="KB8DaP4lJ72ktsZPJHTP-23" value="" style="sketch=0;pointerEvents=1;shadow=0;dashed=0;html=1;strokeColor=none;fillColor=#505050;labelPosition=center;verticalLabelPosition=bottom;verticalAlign=top;outlineConnect=0;align=center;shape=mxgraph.office.devices.tv;" vertex="1" parent="1">
          <mxGeometry x="1057" width="50" height="40" as="geometry" />
        </mxCell>
        <mxCell id="KB8DaP4lJ72ktsZPJHTP-24" value="" style="image;html=1;image=img/lib/clip_art/computers/Printer_Commercial_128x128.png" vertex="1" parent="1">
          <mxGeometry x="972" y="50" width="98" height="70" as="geometry" />
        </mxCell>
        <mxCell id="KB8DaP4lJ72ktsZPJHTP-25" value="" style="dashed=0;labelPosition=right;align=left;shape=mxgraph.gmdl.switch;aspect=fixed;switchState=off;strokeColor=none;fillColor=#0E9D57;sketch=0;html=1;" vertex="1" parent="1">
          <mxGeometry x="990" y="140" width="36" height="20" as="geometry" />
        </mxCell>
        <mxCell id="KB8DaP4lJ72ktsZPJHTP-26" value="" style="dashed=0;labelPosition=right;align=left;shape=mxgraph.gmdl.switch;aspect=fixed;switchState=off;strokeColor=none;fillColor=#0E9D57;sketch=0;html=1;" vertex="1" parent="1">
          <mxGeometry x="990" y="170" width="36" height="20" as="geometry" />
        </mxCell>
        <mxCell id="KB8DaP4lJ72ktsZPJHTP-27" value="" style="dashed=0;labelPosition=right;align=left;shape=mxgraph.gmdl.switch;aspect=fixed;switchState=off;strokeColor=none;fillColor=#0E9D57;sketch=0;html=1;" vertex="1" parent="1">
          <mxGeometry x="990" y="210" width="36" height="20" as="geometry" />
        </mxCell>
        <mxCell id="KB8DaP4lJ72ktsZPJHTP-28" value="" style="dashed=0;labelPosition=right;align=left;shape=mxgraph.gmdl.switch;aspect=fixed;switchState=off;strokeColor=none;fillColor=#0E9D57;sketch=0;html=1;" vertex="1" parent="1">
          <mxGeometry x="990" y="250" width="36" height="20" as="geometry" />
        </mxCell>
        <mxCell id="KB8DaP4lJ72ktsZPJHTP-29" value="" style="rounded=0;whiteSpace=wrap;html=1;movable=0;resizable=0;rotatable=0;deletable=0;editable=0;locked=1;connectable=0;" vertex="1" parent="1">
          <mxGeometry x="817" width="120" height="360" as="geometry" />
        </mxCell>
        <mxCell id="KB8DaP4lJ72ktsZPJHTP-30" value="&lt;font style=&quot;font-size: 21px;&quot;&gt;AP&#39;s&lt;/font&gt;" style="text;html=1;align=center;verticalAlign=middle;whiteSpace=wrap;rounded=0;" vertex="1" parent="1">
          <mxGeometry x="847" y="-30" width="60" height="30" as="geometry" />
        </mxCell>
        <mxCell id="KB8DaP4lJ72ktsZPJHTP-32" value="" style="dashed=0;labelPosition=right;align=left;shape=mxgraph.gmdl.switch;aspect=fixed;switchState=off;strokeColor=none;fillColor=#0E9D57;sketch=0;html=1;" vertex="1" parent="1">
          <mxGeometry x="990" y="290" width="36" height="20" as="geometry" />
        </mxCell>
        <mxCell id="KB8DaP4lJ72ktsZPJHTP-33" value="" style="shape=image;html=1;verticalAlign=top;verticalLabelPosition=bottom;labelBackgroundColor=#ffffff;imageAspect=0;aspect=fixed;image=https://cdn1.iconfinder.com/data/icons/bootstrap-vol-3/16/outlet-128.png;imageBackground=#fa0000;" vertex="1" parent="1">
          <mxGeometry x="1090" y="120" width="40" height="40" as="geometry" />
        </mxCell>
        <mxCell id="KB8DaP4lJ72ktsZPJHTP-34" value="" style="shape=image;html=1;verticalAlign=top;verticalLabelPosition=bottom;labelBackgroundColor=#ffffff;imageAspect=0;aspect=fixed;image=https://cdn1.iconfinder.com/data/icons/bootstrap-vol-3/16/outlet-128.png;imageBackground=#fa0000;" vertex="1" parent="1">
          <mxGeometry x="1090" y="170" width="40" height="40" as="geometry" />
        </mxCell>
        <mxCell id="KB8DaP4lJ72ktsZPJHTP-35" value="" style="shape=image;html=1;verticalAlign=top;verticalLabelPosition=bottom;labelBackgroundColor=#ffffff;imageAspect=0;aspect=fixed;image=https://cdn1.iconfinder.com/data/icons/bootstrap-vol-3/16/outlet-128.png;imageBackground=#fa0000;" vertex="1" parent="1">
          <mxGeometry x="1090" y="220" width="40" height="40" as="geometry" />
        </mxCell>
        <mxCell id="KB8DaP4lJ72ktsZPJHTP-36" value="" style="shape=image;html=1;verticalAlign=top;verticalLabelPosition=bottom;labelBackgroundColor=#ffffff;imageAspect=0;aspect=fixed;image=https://cdn1.iconfinder.com/data/icons/bootstrap-vol-3/16/outlet-128.png;imageBackground=#fa0000;" vertex="1" parent="1">
          <mxGeometry x="1090" y="280" width="40" height="40" as="geometry" />
        </mxCell>
        <mxCell id="KB8DaP4lJ72ktsZPJHTP-37" value="" style="shape=image;html=1;verticalAlign=top;verticalLabelPosition=bottom;labelBackgroundColor=#ffffff;imageAspect=0;aspect=fixed;image=https://cdn1.iconfinder.com/data/icons/bootstrap-vol-3/16/outlet-128.png;imageBackground=#fa0000;" vertex="1" parent="1">
          <mxGeometry x="1140" y="120" width="40" height="40" as="geometry" />
        </mxCell>
        <mxCell id="KB8DaP4lJ72ktsZPJHTP-38" value="" style="shape=image;html=1;verticalAlign=top;verticalLabelPosition=bottom;labelBackgroundColor=#ffffff;imageAspect=0;aspect=fixed;image=https://cdn1.iconfinder.com/data/icons/bootstrap-vol-3/16/outlet-128.png;imageBackground=#fa0000;" vertex="1" parent="1">
          <mxGeometry x="1140" y="170" width="40" height="40" as="geometry" />
        </mxCell>
        <mxCell id="KB8DaP4lJ72ktsZPJHTP-39" value="" style="shape=image;html=1;verticalAlign=top;verticalLabelPosition=bottom;labelBackgroundColor=#ffffff;imageAspect=0;aspect=fixed;image=https://cdn1.iconfinder.com/data/icons/bootstrap-vol-3/16/outlet-128.png;imageBackground=#fa0000;" vertex="1" parent="1">
          <mxGeometry x="1140" y="220" width="40" height="40" as="geometry" />
        </mxCell>
        <mxCell id="KB8DaP4lJ72ktsZPJHTP-40" value="" style="shape=image;html=1;verticalAlign=top;verticalLabelPosition=bottom;labelBackgroundColor=#ffffff;imageAspect=0;aspect=fixed;image=https://cdn1.iconfinder.com/data/icons/bootstrap-vol-3/16/outlet-128.png;imageBackground=#fa0000;" vertex="1" parent="1">
          <mxGeometry x="1140" y="280" width="40" height="40" as="geometry" />
        </mxCell>
        <mxCell id="KB8DaP4lJ72ktsZPJHTP-41" value="" style="fontColor=#0066CC;verticalAlign=top;verticalLabelPosition=bottom;labelPosition=center;align=center;html=1;outlineConnect=0;fillColor=#CCCCCC;strokeColor=#6881B3;gradientColor=none;gradientDirection=north;strokeWidth=2;shape=mxgraph.networks.hub;" vertex="1" parent="1">
          <mxGeometry x="1070" y="70" width="100" height="30" as="geometry" />
        </mxCell>
        <mxCell id="KB8DaP4lJ72ktsZPJHTP-42" value="" style="image;points=[];aspect=fixed;html=1;align=center;shadow=0;dashed=0;image=img/lib/allied_telesis/wireless/Access_Point_Indoor.svg;" vertex="1" parent="1">
          <mxGeometry x="833.7" y="15.400000000000006" width="36.6" height="54.6" as="geometry" />
        </mxCell>
        <mxCell id="KB8DaP4lJ72ktsZPJHTP-43" value="" style="image;points=[];aspect=fixed;html=1;align=center;shadow=0;dashed=0;image=img/lib/allied_telesis/wireless/Access_Point_Indoor.svg;" vertex="1" parent="1">
          <mxGeometry x="833.7" y="85.4" width="36.6" height="54.6" as="geometry" />
        </mxCell>
        <mxCell id="KB8DaP4lJ72ktsZPJHTP-44" value="" style="image;points=[];aspect=fixed;html=1;align=center;shadow=0;dashed=0;image=img/lib/allied_telesis/wireless/Access_Point_Indoor.svg;" vertex="1" parent="1">
          <mxGeometry x="833.7" y="142.7" width="36.6" height="54.6" as="geometry" />
        </mxCell>
        <mxCell id="KB8DaP4lJ72ktsZPJHTP-45" value="" style="image;points=[];aspect=fixed;html=1;align=center;shadow=0;dashed=0;image=img/lib/allied_telesis/wireless/Access_Point_Indoor.svg;" vertex="1" parent="1">
          <mxGeometry x="833.7" y="220" width="36.6" height="54.6" as="geometry" />
        </mxCell>
        <mxCell id="KB8DaP4lJ72ktsZPJHTP-46" value="" style="image;points=[];aspect=fixed;html=1;align=center;shadow=0;dashed=0;image=img/lib/allied_telesis/wireless/Access_Point_Indoor.svg;" vertex="1" parent="1">
          <mxGeometry x="833.7" y="290" width="36.6" height="54.6" as="geometry" />
        </mxCell>
        <mxCell id="KB8DaP4lJ72ktsZPJHTP-47" value="" style="image;points=[];aspect=fixed;html=1;align=center;shadow=0;dashed=0;image=img/lib/allied_telesis/wireless/Access_Point_Indoor.svg;" vertex="1" parent="1">
          <mxGeometry x="890" y="15.400000000000006" width="36.6" height="54.6" as="geometry" />
        </mxCell>
        <mxCell id="KB8DaP4lJ72ktsZPJHTP-48" value="" style="image;points=[];aspect=fixed;html=1;align=center;shadow=0;dashed=0;image=img/lib/allied_telesis/wireless/Access_Point_Indoor.svg;" vertex="1" parent="1">
          <mxGeometry x="890" y="88.10000000000001" width="36.6" height="54.6" as="geometry" />
        </mxCell>
        <mxCell id="KB8DaP4lJ72ktsZPJHTP-49" value="" style="image;points=[];aspect=fixed;html=1;align=center;shadow=0;dashed=0;image=img/lib/allied_telesis/wireless/Access_Point_Indoor.svg;" vertex="1" parent="1">
          <mxGeometry x="890" y="152.7" width="36.6" height="54.6" as="geometry" />
        </mxCell>
        <mxCell id="KB8DaP4lJ72ktsZPJHTP-50" value="" style="image;points=[];aspect=fixed;html=1;align=center;shadow=0;dashed=0;image=img/lib/allied_telesis/wireless/Access_Point_Indoor.svg;" vertex="1" parent="1">
          <mxGeometry x="890" y="230" width="36.6" height="54.6" as="geometry" />
        </mxCell>
        <mxCell id="KB8DaP4lJ72ktsZPJHTP-51" value="" style="image;points=[];aspect=fixed;html=1;align=center;shadow=0;dashed=0;image=img/lib/allied_telesis/wireless/Access_Point_Indoor.svg;" vertex="1" parent="1">
          <mxGeometry x="890" y="284.6" width="36.6" height="54.6" as="geometry" />
        </mxCell>
        <mxCell id="KB8DaP4lJ72ktsZPJHTP-52" value="" style="rounded=0;whiteSpace=wrap;html=1;" vertex="1" parent="1">
          <mxGeometry x="530" y="135" width="120" height="170" as="geometry" />
        </mxCell>
        <mxCell id="KB8DaP4lJ72ktsZPJHTP-53" value="&lt;font style=&quot;font-size: 20px;&quot;&gt;Office&lt;/font&gt;" style="text;html=1;align=center;verticalAlign=middle;whiteSpace=wrap;rounded=0;movable=0;resizable=0;rotatable=0;deletable=0;editable=0;locked=1;connectable=0;" vertex="1" parent="1">
          <mxGeometry x="560" y="100.4" width="60" height="30" as="geometry" />
        </mxCell>
        <mxCell id="KB8DaP4lJ72ktsZPJHTP-54" value="" style="sketch=0;aspect=fixed;pointerEvents=1;shadow=0;dashed=0;html=1;strokeColor=none;labelPosition=center;verticalLabelPosition=bottom;verticalAlign=top;align=center;fillColor=#00188D;shape=mxgraph.azure.laptop" vertex="1" parent="1">
          <mxGeometry x="560" y="152.7" width="50" height="30" as="geometry" />
        </mxCell>
        <mxCell id="KB8DaP4lJ72ktsZPJHTP-55" value="" style="sketch=0;pointerEvents=1;shadow=0;dashed=0;html=1;strokeColor=none;fillColor=#505050;labelPosition=center;verticalLabelPosition=bottom;verticalAlign=top;outlineConnect=0;align=center;shape=mxgraph.office.devices.workstation_pc;" vertex="1" parent="1">
          <mxGeometry x="563.5" y="197.3" width="53" height="59" as="geometry" />
        </mxCell>
      </root>
    </mxGraphModel>
  </diagram>
</mxfile>
